# xmcd CD database file
#
# Track frame offsets:
#	150
#	18455
#	30645
#	45886
#	58826
#	70552
#	85547
#	103084
#	116430
#	129948
#	143059
#
# Disc length: 2065 seconds
#
# Revision: 0
# Processed by: cddbd v1.5.2PL0 Copyright (c) Steve Scherf et al.
# Submitted via: CDex 1.70beta2
#
DISCID=82080f0b
DTITLE=Juan Calle and His Latin Lantzmen - Mazel Tov, Mis Amigos
DYEAR=1961
DGENRE=Jazz
TTITLE0=Beltz, Mein Shtetele Beltz (Pachanga)
TTITLE1=Havah Nagilah (Cha-Cha)
TTITLE2=O, Momme! Bin Ich Farliebt (Samba)
TTITLE3=Di Greene Koseene (Merengue)
TTITLE4=Glick, Du Bist GEkummen Tzu Shapit (Pasadoble)
TTITLE5=Papirossen (Mambo)
TTITLE6=Freilach a Nacht (Merengue)
TTITLE7=Vus De Vilst, Dus Vill Ich Olch (Cha-Cha)
TTITLE8=Baigelach-Bubiltchki (Pachanga)
TTITLE9=Yossel, Yossel (Cha-Cha)
TTITLE10=Bei Mir Bist Du Shein (Merengue)
EXTD=YEAR: 1961
EXTT0=
EXTT1=
EXTT2=
EXTT3=
EXTT4=
EXTT5=
EXTT6=
EXTT7=
EXTT8=
EXTT9=
EXTT10=
PLAYORDER=
